<?xml version="1.0" encoding="UTF-8" standalone="no"?>
<!-- Created with Inkscape (http://www.inkscape.org/) -->

<svg
   width="3000"
   height="3000"
   viewBox="0 0 793.74998 793.75"
   version="1.1"
   id="svg1"
   xml:space="preserve"
   inkscape:export-filename="emerald-logo.svg"
   inkscape:export-xdpi="96"
   inkscape:export-ydpi="96"
   xmlns:inkscape="http://www.inkscape.org/namespaces/inkscape"
   xmlns:sodipodi="http://sodipodi.sourceforge.net/DTD/sodipodi-0.dtd"
   xmlns="http://www.w3.org/2000/svg"
   xmlns:svg="http://www.w3.org/2000/svg"><sodipodi:namedview
     id="namedview1"
     pagecolor="#ffffff"
     bordercolor="#000000"
     borderopacity="0.25"
     inkscape:showpageshadow="2"
     inkscape:pageopacity="0.0"
     inkscape:pagecheckerboard="0"
     inkscape:deskcolor="#d1d1d1"
     inkscape:document-units="mm"
     showgrid="false"><inkscape:grid
       id="grid5"
       units="mm"
       originx="0"
       originy="0"
       spacingx="0.99999997"
       spacingy="1"
       empcolor="#0099e5"
       empopacity="0.30196078"
       color="#0099e5"
       opacity="0.14901961"
       empspacing="5"
       enabled="true"
       visible="false" /></sodipodi:namedview><defs
     id="defs1" /><g
     inkscape:label="Layer 1"
     inkscape:groupmode="layer"
     id="layer1"><path
       d="m 410.21204,197.05117 c -21.99778,0.29185 -43.49626,4.07746 -62.84223,10.52055 -0.26107,0.0883 -0.52192,0.17652 -0.78222,0.26441 -15.4808,5.27952 -29.94566,12.32043 -42.69828,20.58134 -17.57894,11.35162 -32.67508,25.68115 -43.83748,41.09665 -1.35757,1.85864 -2.63524,3.75719 -3.90504,5.65311 -0.50161,0.67502 -0.87381,1.44469 -1.01325,2.18202 -0.20579,1.01163 0.0193,1.9761 0.71584,2.3554 4.54124,2.25455 9.32639,4.5846 14.34366,7.0419 0.97561,0.464 1.93781,0.96826 2.93807,1.43129 1.14763,0.59678 2.99694,0.0967 4.20094,-1.25224 0.87151,-1.10174 1.62453,-2.29334 2.44909,-3.41378 5.59766,-7.79102 12.59567,-14.99016 20.57034,-21.20537 6.89788,-5.39861 14.68536,-10.0989 22.97846,-13.86188 11.02606,-5.02203 23.25273,-8.49125 35.71479,-9.92877 12.66243,-1.46987 25.73689,-0.88523 38.25571,1.93015 13.55835,3.03356 26.35352,8.7485 37.236,16.87165 9.98625,7.43663 18.21271,16.86588 23.83161,27.7158 6.31258,12.1857 9.2932,25.872 8.40074,39.95102 -6.31791,-2.9341 -12.84217,-5.63159 -19.60602,-7.93831 -0.26031,-0.0879 -0.52115,-0.17607 -0.78222,-0.26441 -22.10967,-7.36353 -47.03098,-11.25592 -72.29567,-10.42913 -21.63721,0.70298 -43.65157,4.953 -64.36987,12.91085 -16.95571,6.50937 -32.92373,15.4986 -46.77707,26.88313 -29.19785,23.83892 -48.34993,56.86816 -50.35208,93.77605 -1.33366,21.6717 3.1424,43.53944 13.31107,64.06487 12.66596,25.62394 33.51602,47.61313 59.97698,63.80882 24.49062,15.0346 52.46672,24.34667 81.13758,27.55496 29.45247,3.38319 58.41579,0.3705 84.1891,-7.80934 26.61383,-8.40136 49.4238,-22.08806 66.68126,-38.6229 12.68515,-12.09792 22.57211,-25.80336 29.3876,-40.02652 3.74199,-7.78979 6.65089,-15.78499 8.61811,-23.85817 0.31541,-1.81295 -0.51628,-4.06395 -1.91345,-4.93802 -1.00314,-0.71809 -2.07821,-1.1628 -3.10841,-1.80572 -6.68338,-3.73618 -13.58124,-7.64503 -20.75393,-11.5649 -1.8099,-0.59361 -3.69555,0.69352 -4.1835,2.72184 -3.56148,9.37795 -9.08821,18.33711 -16.42326,26.13353 -5.59818,5.8965 -12.26309,11.20891 -19.79722,15.60804 -9.56591,5.60162 -20.58976,9.69191 -32.48082,11.91808 -13.44858,2.52357 -27.90733,2.61613 -42.28138,-0.0683 -17.40993,-3.23212 -34.28339,-10.34216 -48.55889,-20.93299 -9.15537,-6.76508 -17.04962,-14.76243 -23.3157,-23.62411 25.64411,8.05727 54.41101,11.02021 83.66787,7.65948 28.67086,-3.20828 56.64696,-12.52072 81.13758,-27.55533 26.46096,-16.19569 47.31102,-38.18488 59.97699,-63.80881 10.16865,-20.52544 14.64434,-42.3928 13.31068,-64.0645 -2.00215,-36.90788 -21.15385,-69.93713 -50.3517,-93.77606 -13.85333,-11.38451 -29.82174,-20.37376 -46.77745,-26.88312 -20.7183,-7.95784 -42.73228,-12.20824 -64.36949,-12.91122 -3.15809,-0.10336 -6.3109,-0.13274 -9.45344,-0.091 z m 7.71866,149.94019 c 2.40708,-0.0678 4.81454,-0.0604 7.21603,0.0205 3.20199,0.10789 6.39329,0.34684 9.5589,0.71431 8.54137,0.98525 16.94121,2.98679 24.95071,5.72669 -6.74049,15.22476 -17.95644,28.84974 -32.29268,39.44307 -14.2755,10.59081 -31.14935,17.70048 -48.55927,20.9326 -14.37405,2.68443 -28.83241,2.59187 -42.28099,0.0683 -2.61896,-0.4903 -5.17688,-1.10647 -7.70539,-1.77384 1.44655,-6.20617 3.62763,-12.2107 6.5643,-17.8796 5.61891,-10.84992 13.84536,-20.27878 23.83162,-27.71542 10.88247,-8.12315 23.67764,-13.83809 37.23599,-16.87165 7.04184,-1.58366 14.25954,-2.4616 21.48078,-2.66495 z"
       style="fill:#006b3d;stroke-width:2.94135;stroke-linejoin:bevel"
       id="path16" /></g></svg>
